<svg viewBox="0 0 100 100" xmlns="http://www.w3.org/2000/svg">
  <!-- Cat body -->
  <ellipse cx="50" cy="65" rx="20" ry="15" fill="#FFA500" stroke="#FF8C00" stroke-width="2"/>
  <!-- Cat head -->
  <circle cx="50" cy="35" r="15" fill="#FFB84D" stroke="#FF8C00" stroke-width="2"/>
  <!-- Cat ears -->
  <polygon points="38,22 42,30 46,22" fill="#FFA500" stroke="#FF8C00" stroke-width="1"/>
  <polygon points="54,22 58,30 62,22" fill="#FFA500" stroke="#FF8C00" stroke-width="1"/>
  <polygon points="40,24 42,28 44,24" fill="#FF69B4"/>
  <polygon points="56,24 58,28 60,24" fill="#FF69B4"/>
  <!-- Eyes -->
  <ellipse cx="45" cy="32" rx="2" ry="3" fill="#32CD32"/>
  <ellipse cx="55" cy="32" rx="2" ry="3" fill="#32CD32"/>
  <ellipse cx="45" cy="32" rx="1" ry="2" fill="#000"/>
  <ellipse cx="55" cy="32" rx="1" ry="2" fill="#000"/>
  <!-- Nose -->
  <polygon points="48,38 50,36 52,38 50,40" fill="#FF69B4"/>
  <!-- Mouth -->
  <path d="M 47 42 Q 50 44 53 42" stroke="#000" stroke-width="2" fill="none"/>
  <!-- Whiskers -->
  <line x1="30" y1="35" x2="40" y2="37" stroke="#000" stroke-width="1"/>
  <line x1="30" y1="40" x2="40" y2="40" stroke="#000" stroke-width="1"/>
  <line x1="60" y1="37" x2="70" y2="35" stroke="#000" stroke-width="1"/>
  <line x1="60" y1="40" x2="70" y2="40" stroke="#000" stroke-width="1"/>
  <!-- Cat stripes -->
  <path d="M 40 55 Q 50 50 60 55" stroke="#FF8C00" stroke-width="2" fill="none"/>
  <path d="M 42 70 Q 50 65 58 70" stroke="#FF8C00" stroke-width="2" fill="none"/>
  <!-- Legs -->
  <ellipse cx="40" cy="78" rx="4" ry="8" fill="#FFA500" stroke="#FF8C00" stroke-width="1"/>
  <ellipse cx="50" cy="78" rx="4" ry="8" fill="#FFA500" stroke="#FF8C00" stroke-width="1"/>
  <ellipse cx="60" cy="78" rx="4" ry="8" fill="#FFA500" stroke="#FF8C00" stroke-width="1"/>
  <!-- Tail -->
  <path d="M 70 65 Q 80 55 75 45 Q 70 40 75 35" stroke="#FFA500" stroke-width="6" fill="none"/>
  <path d="M 72 60 Q 77 50 74 43" stroke="#FF8C00" stroke-width="2" fill="none"/>
</svg>