<svg viewBox="0 0 100 100" xmlns="http://www.w3.org/2000/svg">
  <!-- Dog body -->
  <ellipse cx="55" cy="65" rx="25" ry="18" fill="#8B4513" stroke="#654321" stroke-width="2"/>
  <!-- Dog head -->
  <circle cx="35" cy="40" r="16" fill="#D2691E" stroke="#654321" stroke-width="2"/>
  <!-- Dog snout -->
  <ellipse cx="20" cy="45" rx="8" ry="6" fill="#DEB887" stroke="#654321" stroke-width="2"/>
  <!-- Ears -->
  <ellipse cx="25" cy="28" rx="6" ry="12" fill="#8B4513" stroke="#654321" stroke-width="1"/>
  <ellipse cx="45" cy="28" rx="6" ry="12" fill="#8B4513" stroke="#654321" stroke-width="1"/>
  <!-- Eyes -->
  <circle cx="30" cy="35" r="2" fill="#000"/>
  <circle cx="40" cy="35" r="2" fill="#000"/>
  <!-- Nose -->
  <ellipse cx="16" cy="43" rx="2" ry="1.5" fill="#000"/>
  <!-- Mouth -->
  <path d="M 18 48 Q 22 52 26 48" stroke="#000" stroke-width="2" fill="none"/>
  <!-- Tongue -->
  <ellipse cx="22" cy="50" rx="3" ry="2" fill="#FF69B4"/>
  <!-- Legs -->
  <ellipse cx="40" cy="80" rx="5" ry="10" fill="#8B4513" stroke="#654321" stroke-width="1"/>
  <ellipse cx="50" cy="80" rx="5" ry="10" fill="#8B4513" stroke="#654321" stroke-width="1"/>
  <ellipse cx="65" cy="80" rx="5" ry="10" fill="#8B4513" stroke="#654321" stroke-width="1"/>
  <ellipse cx="75" cy="80" rx="5" ry="10" fill="#8B4513" stroke="#654321" stroke-width="1"/>
  <!-- Tail -->
  <path d="M 80 60 Q 90 50 85 40 Q 80 35 85 30" stroke="#8B4513" stroke-width="6" fill="none"/>
  <!-- Spots -->
  <circle cx="45" cy="55" r="3" fill="#654321"/>
  <circle cx="65" cy="60" r="4" fill="#654321"/>
  <circle cx="60" cy="70" r="3" fill="#654321"/>
</svg>