<svg viewBox="0 0 100 100" xmlns="http://www.w3.org/2000/svg">
  <defs>
    <radialGradient id="appleGrad" cx="0.3" cy="0.2">
      <stop offset="0%" stop-color="#FF6B6B"/>
      <stop offset="40%" stop-color="#FF0000"/>
      <stop offset="80%" stop-color="#DC143C"/>
      <stop offset="100%" stop-color="#8B0000"/>
    </radialGradient>
    <linearGradient id="leafGrad" x1="0" y1="0" x2="1" y2="1">
      <stop offset="0%" stop-color="#90EE90"/>
      <stop offset="50%" stop-color="#32CD32"/>
      <stop offset="100%" stop-color="#228B22"/>
    </linearGradient>
  </defs>
  
  <!-- Apple body with realistic gradient -->
  <path d="M 50 20 Q 32 25 32 50 Q 32 78 50 88 Q 68 78 68 50 Q 68 25 50 20 Z" fill="url(#appleGrad)" stroke="#8B0000" stroke-width="2"/>
  
  <!-- Apple texture and natural variations -->
  <ellipse cx="45" cy="45" rx="8" ry="15" fill="#FF4500" opacity="0.3"/>
  <ellipse cx="55" cy="50" rx="6" ry="12" fill="#FF6347" opacity="0.4"/>
  <ellipse cx="38" cy="55" rx="4" ry="8" fill="#DC143C" opacity="0.3"/>
  
  <!-- Apple dimple/indent with depth -->
  <path d="M 44 18 Q 50 12 56 18 Q 54 24 50 21 Q 46 24 44 18 Z" fill="#8B0000"/>
  <ellipse cx="50" cy="19" rx="4" ry="2" fill="#654321" opacity="0.6"/>
  
  <!-- Realistic stem -->
  <ellipse cx="50" cy="14" rx="1.5" ry="6" fill="#8B4513"/>
  <ellipse cx="50" cy="11" rx="1" ry="3" fill="#654321"/>
  
  <!-- Detailed leaf with veins -->
  <ellipse cx="55" cy="12" rx="5" ry="3" fill="url(#leafGrad)" transform="rotate(30 55 12)"/>
  <path d="M 52 11 Q 57 12 58 14" stroke="#228B22" stroke-width="0.5" fill="none" transform="rotate(30 55 12)"/>
  <path d="M 53 10 Q 56 11 57 13" stroke="#228B22" stroke-width="0.5" fill="none" transform="rotate(30 55 12)"/>
  
  <!-- Main highlight -->
  <ellipse cx="42" cy="32" rx="8" ry="15" fill="#FFFFFF" opacity="0.4"/>
  <ellipse cx="40" cy="30" rx="4" ry="8" fill="#FFFFFF" opacity="0.6"/>
  
  <!-- Secondary highlights for depth -->
  <ellipse cx="58" cy="40" rx="3" ry="6" fill="#FF8C69" opacity="0.5"/>
  <ellipse cx="48" cy="65" rx="5" ry="8" fill="#FF4500" opacity="0.4"/>
  
  <!-- Apple skin texture -->
  <circle cx="38" cy="40" r="1" fill="#FF4500" opacity="0.6"/>
  <circle cx="60" cy="45" r="0.8" fill="#FF4500" opacity="0.6"/>
  <circle cx="45" cy="70" r="0.9" fill="#FF4500" opacity="0.6"/>
  <circle cx="55" cy="65" r="0.7" fill="#FF4500" opacity="0.6"/>
  
  <!-- Subtle shadow at base -->
  <ellipse cx="50" cy="85" rx="12" ry="3" fill="#8B0000" opacity="0.3"/>
</svg>