<svg viewBox="0 0 100 100" xmlns="http://www.w3.org/2000/svg">
  <!-- Grape cluster -->
  <circle cx="50" cy="30" r="5" fill="#8A2BE2"/>
  <circle cx="45" cy="38" r="5" fill="#8A2BE2"/>
  <circle cx="55" cy="38" r="5" fill="#8A2BE2"/>
  <circle cx="40" cy="46" r="5" fill="#8A2BE2"/>
  <circle cx="50" cy="46" r="5" fill="#8A2BE2"/>
  <circle cx="60" cy="46" r="5" fill="#8A2BE2"/>
  <circle cx="45" cy="54" r="5" fill="#8A2BE2"/>
  <circle cx="55" cy="54" r="5" fill="#8A2BE2"/>
  <circle cx="38" cy="54" r="5" fill="#8A2BE2"/>
  <circle cx="62" cy="54" r="5" fill="#8A2BE2"/>
  <circle cx="50" cy="62" r="5" fill="#8A2BE2"/>
  <circle cx="42" cy="62" r="5" fill="#8A2BE2"/>
  <circle cx="58" cy="62" r="5" fill="#8A2BE2"/>
  <circle cx="46" cy="70" r="5" fill="#8A2BE2"/>
  <circle cx="54" cy="70" r="5" fill="#8A2BE2"/>
  <circle cx="50" cy="78" r="5" fill="#8A2BE2"/>
  <!-- Stem -->
  <rect x="49" y="15" width="2" height="10" fill="#228B22"/>
  <!-- Leaves -->
  <ellipse cx="42" cy="18" rx="5" ry="3" fill="#32CD32" transform="rotate(-30 42 18)"/>
  <ellipse cx="58" cy="18" rx="5" ry="3" fill="#32CD32" transform="rotate(30 58 18)"/>
  <!-- Vine -->
  <path d="M 55 20 Q 65 15 70 25" stroke="#228B22" stroke-width="1" fill="none"/>
</svg>