<svg viewBox="0 0 100 100" xmlns="http://www.w3.org/2000/svg">
  <!-- Strawberry body -->
  <path d="M 50 85 Q 35 75 35 55 Q 35 35 50 25 Q 65 35 65 55 Q 65 75 50 85 Z" fill="#FF1493" stroke="#DC143C" stroke-width="2"/>
  <!-- Strawberry seeds -->
  <ellipse cx="45" cy="45" rx="1" ry="2" fill="#FFD700"/>
  <ellipse cx="55" cy="45" rx="1" ry="2" fill="#FFD700"/>
  <ellipse cx="40" cy="55" rx="1" ry="2" fill="#FFD700"/>
  <ellipse cx="50" cy="55" rx="1" ry="2" fill="#FFD700"/>
  <ellipse cx="60" cy="55" rx="1" ry="2" fill="#FFD700"/>
  <ellipse cx="45" cy="65" rx="1" ry="2" fill="#FFD700"/>
  <ellipse cx="55" cy="65" rx="1" ry="2" fill="#FFD700"/>
  <ellipse cx="50" cy="75" rx="1" ry="2" fill="#FFD700"/>
  <ellipse cx="42" cy="75" rx="1" ry="2" fill="#FFD700"/>
  <ellipse cx="58" cy="75" rx="1" ry="2" fill="#FFD700"/>
  <!-- Strawberry top/leaves -->
  <ellipse cx="45" cy="25" rx="3" ry="6" fill="#32CD32" transform="rotate(-20 45 25)"/>
  <ellipse cx="50" cy="22" rx="3" ry="6" fill="#32CD32"/>
  <ellipse cx="55" cy="25" rx="3" ry="6" fill="#32CD32" transform="rotate(20 55 25)"/>
  <ellipse cx="40" cy="28" rx="2" ry="4" fill="#228B22" transform="rotate(-30 40 28)"/>
  <ellipse cx="60" cy="28" rx="2" ry="4" fill="#228B22" transform="rotate(30 60 28)"/>
</svg>