<svg width="120" height="120" viewBox="0 0 120 120" fill="none" xmlns="http://www.w3.org/2000/svg">
  <!-- Goat shadow silhouette -->
  <g fill="#444444" opacity="0.7">
    <!-- Goat body -->
    <ellipse cx="60" cy="75" rx="25" ry="18"/>
    
    <!-- Goat head -->
    <ellipse cx="60" cy="50" rx="18" ry="15"/>
    
    <!-- Goat snout -->
    <ellipse cx="60" cy="58" rx="6" ry="4"/>
    
    <!-- Goat beard -->
    <ellipse cx="60" cy="68" rx="3" ry="8"/>
    
    <!-- Goat ears -->
    <ellipse cx="50" cy="42" rx="4" ry="8" transform="rotate(-30 50 42)"/>
    <ellipse cx="70" cy="42" rx="4" ry="8" transform="rotate(30 70 42)"/>
    
    <!-- Goat horns -->
    <path d="M52 35 L50 25 M68 35 L70 25" stroke="#444444" stroke-width="3"/>
    
    <!-- Goat legs -->
    <rect x="48" y="90" width="3" height="15"/>
    <rect x="56" y="92" width="3" height="15"/>
    <rect x="61" y="92" width="3" height="15"/>
    <rect x="69" y="90" width="3" height="15"/>
    
    <!-- Goat tail -->
    <path d="M85 72 Q90 78 85 85" stroke="#444444" stroke-width="3" fill="none"/>
  </g>
</svg>