<svg viewBox="0 0 100 100" xmlns="http://www.w3.org/2000/svg">
  <defs>
    <radialGradient id="elephantBody" cx="0.3" cy="0.3">
      <stop offset="0%" stop-color="#D3D3D3"/>
      <stop offset="60%" stop-color="#C0C0C0"/>
      <stop offset="100%" stop-color="#808080"/>
    </radialGradient>
    <radialGradient id="elephantEar" cx="0.2" cy="0.3">
      <stop offset="0%" stop-color="#C8C8C8"/>
      <stop offset="70%" stop-color="#A9A9A9"/>
      <stop offset="100%" stop-color="#696969"/>
    </radialGradient>
  </defs>
  
  <!-- Elephant body with realistic proportions -->
  <ellipse cx="55" cy="65" rx="32" ry="22" fill="url(#elephantBody)" stroke="#696969" stroke-width="2"/>
  
  <!-- Body texture and wrinkles -->
  <path d="M 30 55 Q 50 60 70 55" stroke="#A9A9A9" stroke-width="1" fill="none"/>
  <path d="M 35 70 Q 55 75 75 70" stroke="#A9A9A9" stroke-width="1" fill="none"/>
  <ellipse cx="45" cy="60" rx="3" ry="1" fill="#A9A9A9" opacity="0.6"/>
  <ellipse cx="65" cy="68" rx="4" ry="1.5" fill="#A9A9A9" opacity="0.6"/>
  
  <!-- Elephant head with proper shape -->
  <ellipse cx="35" cy="40" rx="20" ry="22" fill="url(#elephantBody)" stroke="#696969" stroke-width="2"/>
  
  <!-- Detailed trunk with segments -->
  <path d="M 18 45 Q 8 55 12 68 Q 18 75 24 68 Q 28 62 26 58" stroke="url(#elephantBody)" stroke-width="10" fill="none"/>
  <ellipse cx="26" cy="58" rx="4" ry="2" fill="url(#elephantBody)"/>
  
  <!-- Trunk texture lines -->
  <path d="M 15 48 Q 10 58 14 65" stroke="#A9A9A9" stroke-width="1" fill="none"/>
  <path d="M 20 50 Q 15 60 19 67" stroke="#A9A9A9" stroke-width="1" fill="none"/>
  <path d="M 25 52 Q 20 62 24 69" stroke="#A9A9A9" stroke-width="1" fill="none"/>
  
  <!-- Large detailed ears -->
  <path d="M 15 25 Q 8 35 12 50 Q 18 60 30 55 Q 35 45 32 30 Q 28 20 20 18 Z" fill="url(#elephantEar)" stroke="#696969" stroke-width="2"/>
  <path d="M 38 22 Q 45 30 48 45 Q 50 55 45 58 Q 40 55 38 45 Q 36 30 38 22 Z" fill="url(#elephantEar)" stroke="#696969" stroke-width="2"/>
  
  <!-- Ear detail lines -->
  <path d="M 15 30 Q 25 35 30 45" stroke="#696969" stroke-width="1" fill="none"/>
  <path d="M 12 40 Q 20 45 28 50" stroke="#696969" stroke-width="1" fill="none"/>
  <path d="M 40 28 Q 43 35 45 45" stroke="#696969" stroke-width="1" fill="none"/>
  
  <!-- Realistic eyes -->
  <ellipse cx="32" cy="32" rx="3" ry="4" fill="#000"/>
  <ellipse cx="32" cy="31" rx="1" ry="2" fill="#333"/>
  <circle cx="33" cy="30" r="0.5" fill="#FFFFFF"/>
  
  <!-- Tusks -->
  <ellipse cx="24" cy="48" rx="1.5" ry="6" fill="#FFFACD" stroke="#F5DEB3" stroke-width="1" transform="rotate(-20 24 48)"/>
  <ellipse cx="28" cy="50" rx="1.5" ry="5" fill="#FFFACD" stroke="#F5DEB3" stroke-width="1" transform="rotate(10 28 50)"/>
  
  <!-- Detailed legs with realistic feet -->
  <ellipse cx="39" cy="85" rx="6" ry="12" fill="url(#elephantBody)" stroke="#696969" stroke-width="1"/>
  <ellipse cx="52" cy="85" rx="6" ry="12" fill="url(#elephantBody)" stroke="#696969" stroke-width="1"/>
  <ellipse cx="65" cy="85" rx="6" ry="12" fill="url(#elephantBody)" stroke="#696969" stroke-width="1"/>
  <ellipse cx="78" cy="85" rx="6" ry="12" fill="url(#elephantBody)" stroke="#696969" stroke-width="1"/>
  
  <!-- Feet pads -->
  <ellipse cx="39" cy="92" rx="5" ry="3" fill="#696969"/>
  <ellipse cx="52" cy="92" rx="5" ry="3" fill="#696969"/>
  <ellipse cx="65" cy="92" rx="5" ry="3" fill="#696969"/>
  <ellipse cx="78" cy="92" rx="5" ry="3" fill="#696969"/>
  
  <!-- Toenails -->
  <ellipse cx="36" cy="90" rx="1" ry="2" fill="#808080"/>
  <ellipse cx="42" cy="90" rx="1" ry="2" fill="#808080"/>
  <ellipse cx="49" cy="90" rx="1" ry="2" fill="#808080"/>
  <ellipse cx="55" cy="90" rx="1" ry="2" fill="#808080"/>
  <ellipse cx="62" cy="90" rx="1" ry="2" fill="#808080"/>
  <ellipse cx="68" cy="90" rx="1" ry="2" fill="#808080"/>
  <ellipse cx="75" cy="90" rx="1" ry="2" fill="#808080"/>
  <ellipse cx="81" cy="90" rx="1" ry="2" fill="#808080"/>
  
  <!-- Realistic tail with hair tuft -->
  <path d="M 87 65 Q 95 70 92 80" stroke="url(#elephantBody)" stroke-width="4" fill="none"/>
  <ellipse cx="92" cy="80" rx="3" ry="5" fill="#696969"/>
  <path d="M 90 82 L 88 86 M 92 83 L 90 87 M 94 82 L 96 86" stroke="#696969" stroke-width="1"/>
</svg>