<svg viewBox="0 0 100 100" xmlns="http://www.w3.org/2000/svg">
  <!-- Hippo body -->
  <ellipse cx="55" cy="65" rx="35" ry="20" fill="#8B8B8B" stroke="#696969" stroke-width="2"/>
  <!-- Hippo head -->
  <ellipse cx="35" cy="40" rx="20" ry="18" fill="#A9A9A9" stroke="#696969" stroke-width="2"/>
  <!-- Snout -->
  <ellipse cx="18" cy="45" rx="12" ry="8" fill="#A9A9A9" stroke="#696969" stroke-width="2"/>
  <!-- Eyes on top -->
  <circle cx="25" cy="30" r="4" fill="#8B4513"/>
  <circle cx="40" cy="30" r="4" fill="#8B4513"/>
  <circle cx="25" cy="30" r="2" fill="#000"/>
  <circle cx="40" cy="30" r="2" fill="#000"/>
  <!-- Ears -->
  <ellipse cx="45" cy="25" rx="4" ry="6" fill="#8B8B8B" stroke="#696969" stroke-width="1"/>
  <ellipse cx="55" cy="25" rx="4" ry="6" fill="#8B8B8B" stroke="#696969" stroke-width="1"/>
  <!-- Nostrils -->
  <circle cx="12" cy="42" r="2" fill="#000"/>
  <circle cx="12" cy="48" r="2" fill="#000"/>
  <!-- Mouth -->
  <path d="M 15 52 Q 25 58 35 52" stroke="#000" stroke-width="3" fill="none"/>
  <!-- Legs -->
  <ellipse cx="30" cy="82" rx="8" ry="12" fill="#8B8B8B" stroke="#696969" stroke-width="2"/>
  <ellipse cx="50" cy="82" rx="8" ry="12" fill="#8B8B8B" stroke="#696969" stroke-width="2"/>
  <ellipse cx="70" cy="82" rx="8" ry="12" fill="#8B8B8B" stroke="#696969" stroke-width="2"/>
  <ellipse cx="85" cy="82" rx="8" ry="12" fill="#8B8B8B" stroke="#696969" stroke-width="2"/>
  <!-- Tail -->
  <path d="M 90 65 Q 95 70 90 75" stroke="#8B8B8B" stroke-width="4" fill="none"/>
</svg>