<svg viewBox="0 0 100 100" xmlns="http://www.w3.org/2000/svg">
  <defs>
    <radialGradient id="lionBody" cx="0.3" cy="0.3">
      <stop offset="0%" stop-color="#F4A460"/>
      <stop offset="70%" stop-color="#D2691E"/>
      <stop offset="100%" stop-color="#8B4513"/>
    </radialGradient>
    <radialGradient id="lionMane" cx="0.3" cy="0.2">
      <stop offset="0%" stop-color="#DEB887"/>
      <stop offset="50%" stop-color="#CD853F"/>
      <stop offset="100%" stop-color="#8B4513"/>
    </radialGradient>
  </defs>
  
  <!-- Lion body with gradient -->
  <ellipse cx="50" cy="65" rx="25" ry="18" fill="url(#lionBody)" stroke="#654321" stroke-width="2"/>
  
  <!-- Mane layers for realistic depth -->
  <circle cx="50" cy="35" r="30" fill="url(#lionMane)" opacity="0.9"/>
  <circle cx="48" cy="33" r="26" fill="#DEB887" opacity="0.7"/>
  <circle cx="52" cy="37" r="22" fill="#F4A460" opacity="0.6"/>
  
  <!-- Mane texture details -->
  <path d="M 25 25 Q 30 20 35 25 Q 40 30 35 35" fill="#8B4513" opacity="0.6"/>
  <path d="M 65 25 Q 70 20 75 25 Q 70 30 65 35" fill="#8B4513" opacity="0.6"/>
  <path d="M 35 15 Q 50 10 65 15 Q 60 20 50 18 Q 40 20 35 15" fill="#8B4513" opacity="0.6"/>
  
  <!-- Lion head with detailed features -->
  <ellipse cx="50" cy="35" rx="18" ry="20" fill="url(#lionBody)" stroke="#654321" stroke-width="2"/>
  
  <!-- Detailed facial features -->
  <ellipse cx="50" cy="42" rx="12" ry="8" fill="#F4A460"/>
  
  <!-- Eyes with realistic details -->
  <ellipse cx="44" cy="30" rx="3" ry="4" fill="#FFFFFF"/>
  <ellipse cx="56" cy="30" rx="3" ry="4" fill="#FFFFFF"/>
  <ellipse cx="44" cy="30" rx="2" ry="3" fill="#8B4513"/>
  <ellipse cx="56" cy="30" rx="2" ry="3" fill="#8B4513"/>
  <circle cx="44" cy="29" r="1" fill="#000"/>
  <circle cx="56" cy="29" r="1" fill="#000"/>
  <ellipse cx="45" cy="28" rx="0.5" ry="1" fill="#FFFFFF" opacity="0.8"/>
  <ellipse cx="57" cy="28" rx="0.5" ry="1" fill="#FFFFFF" opacity="0.8"/>
  
  <!-- Nose with nostrils -->
  <ellipse cx="50" cy="38" rx="2.5" ry="2" fill="#000"/>
  <ellipse cx="49" cy="37.5" rx="0.5" ry="0.5" fill="#333"/>
  <ellipse cx="51" cy="37.5" rx="0.5" ry="0.5" fill="#333"/>
  
  <!-- Mouth and whiskers -->
  <path d="M 46 42 Q 50 45 54 42" stroke="#000" stroke-width="2" fill="none"/>
  <line x1="35" y1="38" x2="42" y2="40" stroke="#000" stroke-width="1"/>
  <line x1="35" y1="42" x2="42" y2="43" stroke="#000" stroke-width="1"/>
  <line x1="58" y1="40" x2="65" y2="38" stroke="#000" stroke-width="1"/>
  <line x1="58" y1="43" x2="65" y2="42" stroke="#000" stroke-width="1"/>
  
  <!-- Detailed legs with paws -->
  <ellipse cx="38" cy="82" rx="6" ry="12" fill="url(#lionBody)" stroke="#654321" stroke-width="1"/>
  <ellipse cx="48" cy="82" rx="6" ry="12" fill="url(#lionBody)" stroke="#654321" stroke-width="1"/>
  <ellipse cx="58" cy="82" rx="6" ry="12" fill="url(#lionBody)" stroke="#654321" stroke-width="1"/>
  <ellipse cx="68" cy="82" rx="6" ry="12" fill="url(#lionBody)" stroke="#654321" stroke-width="1"/>
  
  <!-- Paws -->
  <ellipse cx="38" cy="90" rx="4" ry="3" fill="#654321"/>
  <ellipse cx="48" cy="90" rx="4" ry="3" fill="#654321"/>
  <ellipse cx="58" cy="90" rx="4" ry="3" fill="#654321"/>
  <ellipse cx="68" cy="90" rx="4" ry="3" fill="#654321"/>
  
  <!-- Realistic tail with tuft -->
  <path d="M 75 60 Q 85 55 82 68 Q 80 75 78 82" stroke="url(#lionBody)" stroke-width="5" fill="none"/>
  <ellipse cx="78" cy="82" rx="4" ry="6" fill="#8B4513"/>
  <ellipse cx="78" cy="82" rx="3" ry="4" fill="#654321"/>
  
  <!-- Body markings -->
  <ellipse cx="45" cy="60" rx="3" ry="5" fill="#CD853F" opacity="0.6"/>
  <ellipse cx="55" cy="65" rx="4" ry="6" fill="#CD853F" opacity="0.6"/>
</svg>