<svg viewBox="0 0 100 100" xmlns="http://www.w3.org/2000/svg">
  <!-- Zebra body -->
  <ellipse cx="50" cy="65" rx="25" ry="18" fill="#FFFFFF" stroke="#000" stroke-width="2"/>
  <!-- Zebra head -->
  <ellipse cx="50" cy="30" rx="12" ry="18" fill="#FFFFFF" stroke="#000" stroke-width="2"/>
  <!-- Zebra stripes on body -->
  <rect x="30" y="55" width="3" height="20" fill="#000"/>
  <rect x="37" y="55" width="3" height="20" fill="#000"/>
  <rect x="44" y="55" width="3" height="20" fill="#000"/>
  <rect x="51" y="55" width="3" height="20" fill="#000"/>
  <rect x="58" y="55" width="3" height="20" fill="#000"/>
  <rect x="65" y="55" width="3" height="20" fill="#000"/>
  <!-- Zebra stripes on head -->
  <rect x="42" y="18" width="2" height="12" fill="#000"/>
  <rect x="46" y="18" width="2" height="12" fill="#000"/>
  <rect x="50" y="18" width="2" height="12" fill="#000"/>
  <rect x="54" y="18" width="2" height="12" fill="#000"/>
  <!-- Ears -->
  <ellipse cx="42" cy="18" rx="4" ry="8" fill="#FFFFFF" stroke="#000" stroke-width="1"/>
  <ellipse cx="58" cy="18" rx="4" ry="8" fill="#FFFFFF" stroke="#000" stroke-width="1"/>
  <!-- Mane -->
  <path d="M 42 15 Q 50 5 58 15" stroke="#000" stroke-width="3" fill="none"/>
  <!-- Eyes -->
  <circle cx="46" cy="25" r="2" fill="#000"/>
  <circle cx="54" cy="25" r="2" fill="#000"/>
  <!-- Nose -->
  <ellipse cx="50" cy="35" rx="2" ry="3" fill="#000"/>
  <!-- Mouth -->
  <path d="M 47 40 Q 50 42 53 40" stroke="#000" stroke-width="2" fill="none"/>
  <!-- Legs -->
  <rect x="35" y="75" width="6" height="15" fill="#FFFFFF" stroke="#000" stroke-width="1"/>
  <rect x="45" y="75" width="6" height="15" fill="#FFFFFF" stroke="#000" stroke-width="1"/>
  <rect x="55" y="75" width="6" height="15" fill="#FFFFFF" stroke="#000" stroke-width="1"/>
  <rect x="65" y="75" width="6" height="15" fill="#FFFFFF" stroke="#000" stroke-width="1"/>
  <!-- Leg stripes -->
  <rect x="35" y="80" width="6" height="2" fill="#000"/>
  <rect x="45" y="80" width="6" height="2" fill="#000"/>
  <rect x="55" y="80" width="6" height="2" fill="#000"/>
  <rect x="65" y="80" width="6" height="2" fill="#000"/>
  <!-- Tail -->
  <path d="M 75 65 Q 85 70 80 80" stroke="#000" stroke-width="3" fill="none"/>
</svg>