<svg width="120" height="120" viewBox="0 0 120 120" fill="none" xmlns="http://www.w3.org/2000/svg">
  <!-- Cat body -->
  <ellipse cx="60" cy="80" rx="25" ry="20" fill="#FF8C42"/>
  
  <!-- Cat head -->
  <circle cx="60" cy="50" r="22" fill="#FF8C42"/>
  
  <!-- Cat ears -->
  <path d="M45 35 L40 20 L55 30 Z" fill="#FF8C42"/>
  <path d="M75 35 L80 20 L65 30 Z" fill="#FF8C42"/>
  <path d="M45 30 L42 22 L52 28 Z" fill="#FFB485"/>
  <path d="M75 30 L78 22 L68 28 Z" fill="#FFB485"/>
  
  <!-- Cat eyes -->
  <ellipse cx="52" cy="45" rx="3" ry="4" fill="#2E8B57"/>
  <ellipse cx="68" cy="45" rx="3" ry="4" fill="#2E8B57"/>
  <ellipse cx="52" cy="44" rx="1" ry="2" fill="#FFFFFF"/>
  <ellipse cx="68" cy="44" rx="1" ry="2" fill="#FFFFFF"/>
  
  <!-- Cat nose -->
  <path d="M60 52 L58 55 L62 55 Z" fill="#FFB6C1"/>
  
  <!-- Cat mouth -->
  <path d="M60 55 Q55 58 50 56" stroke="#8B4513" stroke-width="1.5" fill="none"/>
  <path d="M60 55 Q65 58 70 56" stroke="#8B4513" stroke-width="1.5" fill="none"/>
  
  <!-- Cat whiskers -->
  <line x1="35" y1="48" x2="48" y2="50" stroke="#8B4513" stroke-width="1"/>
  <line x1="35" y1="52" x2="48" y2="52" stroke="#8B4513" stroke-width="1"/>
  <line x1="72" y1="50" x2="85" y2="48" stroke="#8B4513" stroke-width="1"/>
  <line x1="72" y1="52" x2="85" y2="52" stroke="#8B4513" stroke-width="1"/>
  
  <!-- Cat tail -->
  <path d="M85 75 Q95 65 90 50" stroke="#FF8C42" stroke-width="8" fill="none"/>
  
  <!-- Cat paws -->
  <ellipse cx="48" cy="95" rx="4" ry="6" fill="#FF8C42"/>
  <ellipse cx="58" cy="97" rx="4" ry="6" fill="#FF8C42"/>
  <ellipse cx="62" cy="97" rx="4" ry="6" fill="#FF8C42"/>
  <ellipse cx="72" cy="95" rx="4" ry="6" fill="#FF8C42"/>
</svg>
