<svg width="120" height="120" viewBox="0 0 120 120" fill="none" xmlns="http://www.w3.org/2000/svg">
  <!-- Chicken body -->
  <ellipse cx="60" cy="75" rx="20" ry="15" fill="#FFFFFF"/>
  
  <!-- Chicken head -->
  <circle cx="60" cy="50" r="15" fill="#FFFFFF"/>
  
  <!-- Chicken beak -->
  <path d="M45 50 L40 52 L45 54 Z" fill="#FFA500"/>
  
  <!-- Chicken eyes -->
  <circle cx="55" cy="47" r="2" fill="#000000"/>
  <circle cx="65" cy="47" r="2" fill="#000000"/>
  <circle cx="55" cy="46" r="1" fill="#FFFFFF"/>
  <circle cx="65" cy="46" r="1" fill="#FFFFFF"/>
  
  <!-- Chicken comb -->
  <path d="M52 35 L55 30 L58 35 L61 30 L64 35 L68 30 L70 35 L65 40 L55 40 Z" fill="#FF0000"/>
  
  <!-- Chicken wattles -->
  <ellipse cx="52" cy="55" rx="2" ry="3" fill="#FF0000"/>
  <ellipse cx="68" cy="55" rx="2" ry="3" fill="#FF0000"/>
  
  <!-- Chicken wing -->
  <ellipse cx="70" cy="65" rx="8" ry="12" fill="#F5F5F5"/>
  
  <!-- Chicken tail -->
  <path d="M80 70 Q90 60 85 45 Q88 50 95 45" stroke="#4B0082" stroke-width="3" fill="none"/>
  <path d="M82 75 Q92 65 87 50 Q90 55 97 50" stroke="#008000" stroke-width="3" fill="none"/>
  
  <!-- Chicken legs -->
  <line x1="55" y1="90" x2="55" y2="100" stroke="#FFA500" stroke-width="3"/>
  <line x1="65" y1="90" x2="65" y2="100" stroke="#FFA500" stroke-width="3"/>
  
  <!-- Chicken feet -->
  <path d="M50 100 L48 105 M55 100 L53 105 M60 100 L58 105" stroke="#FFA500" stroke-width="2"/>
  <path d="M60 100 L62 105 M65 100 L67 105 M70 100 L72 105" stroke="#FFA500" stroke-width="2"/>
</svg>