<svg width="120" height="120" viewBox="0 0 120 120" fill="none" xmlns="http://www.w3.org/2000/svg">
  <!-- Cow body -->
  <ellipse cx="60" cy="75" rx="30" ry="22" fill="#FFFFFF"/>
  
  <!-- Cow head -->
  <ellipse cx="60" cy="45" rx="20" ry="15" fill="#FFFFFF"/>
  
  <!-- Cow snout -->
  <ellipse cx="60" cy="55" rx="10" ry="7" fill="#FFB6C1"/>
  
  <!-- Cow nostrils -->
  <ellipse cx="57" cy="55" rx="1.5" ry="2" fill="#000000"/>
  <ellipse cx="63" cy="55" rx="1.5" ry="2" fill="#000000"/>
  
  <!-- Cow ears -->
  <ellipse cx="45" cy="40" rx="6" ry="10" fill="#FFFFFF" transform="rotate(-20 45 40)"/>
  <ellipse cx="75" cy="40" rx="6" ry="10" fill="#FFFFFF" transform="rotate(20 75 40)"/>
  <ellipse cx="45" cy="42" rx="3" ry="6" fill="#FFB6C1" transform="rotate(-20 45 42)"/>
  <ellipse cx="75" cy="42" rx="3" ry="6" fill="#FFB6C1" transform="rotate(20 75 42)"/>
  
  <!-- Cow eyes -->
  <ellipse cx="52" cy="40" rx="3" ry="4" fill="#000000"/>
  <ellipse cx="68" cy="40" rx="3" ry="4" fill="#000000"/>
  <ellipse cx="53" cy="39" rx="1" ry="2" fill="#FFFFFF"/>
  <ellipse cx="69" cy="39" rx="1" ry="2" fill="#FFFFFF"/>
  
  <!-- Cow horns -->
  <path d="M48 30 L45 25" stroke="#8B4513" stroke-width="3"/>
  <path d="M72 30 L75 25" stroke="#8B4513" stroke-width="3"/>
  
  <!-- Cow spots -->
  <ellipse cx="50" cy="70" rx="6" ry="8" fill="#000000"/>
  <ellipse cx="75" cy="65" rx="5" ry="7" fill="#000000"/>
  <ellipse cx="40" cy="80" rx="4" ry="6" fill="#000000"/>
  <circle cx="70" cy="85" r="4" fill="#000000"/>
  
  <!-- Cow udder -->
  <ellipse cx="60" cy="88" rx="8" ry="4" fill="#FFB6C1"/>
  
  <!-- Cow legs -->
  <rect x="43" y="93" width="4" height="12" fill="#FFFFFF"/>
  <rect x="53" y="95" width="4" height="12" fill="#FFFFFF"/>
  <rect x="63" y="95" width="4" height="12" fill="#FFFFFF"/>
  <rect x="73" y="93" width="4" height="12" fill="#FFFFFF"/>
  
  <!-- Cow hooves -->
  <ellipse cx="45" cy="107" rx="3" ry="2" fill="#8B4513"/>
  <ellipse cx="55" cy="107" rx="3" ry="2" fill="#8B4513"/>
  <ellipse cx="65" cy="107" rx="3" ry="2" fill="#8B4513"/>
  <ellipse cx="75" cy="107" rx="3" ry="2" fill="#8B4513"/>
  
  <!-- Cow tail -->
  <path d="M90 75 Q95 85 90 95" stroke="#000000" stroke-width="3" fill="none"/>
  <ellipse cx="90" cy="95" rx="2" ry="4" fill="#000000"/>
</svg>