<svg width="120" height="120" viewBox="0 0 120 120" fill="none" xmlns="http://www.w3.org/2000/svg">
  <!-- Dog body -->
  <ellipse cx="60" cy="80" rx="28" ry="22" fill="#D2B48C"/>
  
  <!-- Dog head -->
  <ellipse cx="60" cy="50" rx="20" ry="18" fill="#D2B48C"/>
  
  <!-- Dog snout -->
  <ellipse cx="60" cy="62" rx="8" ry="6" fill="#DEB887"/>
  
  <!-- Dog ears -->
  <ellipse cx="45" cy="45" rx="6" ry="12" fill="#CD853F" transform="rotate(-30 45 45)"/>
  <ellipse cx="75" cy="45" rx="6" ry="12" fill="#CD853F" transform="rotate(30 75 45)"/>
  
  <!-- Dog eyes -->
  <circle cx="52" cy="45" r="3" fill="#000000"/>
  <circle cx="68" cy="45" r="3" fill="#000000"/>
  <circle cx="53" cy="44" r="1" fill="#FFFFFF"/>
  <circle cx="69" cy="44" r="1" fill="#FFFFFF"/>
  
  <!-- Dog nose -->
  <ellipse cx="60" cy="60" rx="2" ry="1.5" fill="#000000"/>
  
  <!-- Dog mouth -->
  <path d="M60 62 Q55 68 50 66" stroke="#8B4513" stroke-width="1.5" fill="none"/>
  <path d="M60 62 Q65 68 70 66" stroke="#8B4513" stroke-width="1.5" fill="none"/>
  
  <!-- Dog tongue -->
  <ellipse cx="60" cy="68" rx="3" ry="2" fill="#FFB6C1"/>
  
  <!-- Dog spots -->
  <circle cx="50" cy="55" r="3" fill="#CD853F"/>
  <circle cx="70" cy="48" r="2" fill="#CD853F"/>
  <ellipse cx="45" cy="75" rx="4" ry="3" fill="#CD853F"/>
  <ellipse cx="75" cy="85" rx="3" ry="4" fill="#CD853F"/>
  
  <!-- Dog tail -->
  <path d="M88 75 Q98 70 95 55" stroke="#D2B48C" stroke-width="6" fill="none"/>
  <path d="M95 55 Q100 50 98 45" stroke="#D2B48C" stroke-width="6" fill="none"/>
  
  <!-- Dog paws -->
  <ellipse cx="45" cy="97" rx="5" ry="7" fill="#D2B48C"/>
  <ellipse cx="55" cy="99" rx="5" ry="7" fill="#D2B48C"/>
  <ellipse cx="65" cy="99" rx="5" ry="7" fill="#D2B48C"/>
  <ellipse cx="75" cy="97" rx="5" ry="7" fill="#D2B48C"/>
  
  <!-- Paw pads -->
  <ellipse cx="45" cy="100" rx="3" ry="2" fill="#8B4513"/>
  <ellipse cx="55" cy="102" rx="3" ry="2" fill="#8B4513"/>
  <ellipse cx="65" cy="102" rx="3" ry="2" fill="#8B4513"/>
  <ellipse cx="75" cy="100" rx="3" ry="2" fill="#8B4513"/>
</svg>
