<svg width="120" height="120" viewBox="0 0 120 120" fill="none" xmlns="http://www.w3.org/2000/svg">
  <!-- Duck body -->
  <ellipse cx="65" cy="75" rx="25" ry="18" fill="#FFD700"/>
  
  <!-- Duck head -->
  <circle cx="50" cy="50" r="18" fill="#FFD700"/>
  
  <!-- Duck bill -->
  <ellipse cx="35" cy="55" rx="8" ry="4" fill="#FFA500"/>
  
  <!-- Duck eyes -->
  <circle cx="48" cy="45" r="3" fill="#000000"/>
  <circle cx="49" cy="44" r="1" fill="#FFFFFF"/>
  
  <!-- Duck wing -->
  <ellipse cx="75" cy="70" rx="10" ry="15" fill="#FF8C00" transform="rotate(20 75 70)"/>
  
  <!-- Duck tail -->
  <path d="M88 75 Q95 65 90 55" stroke="#FF8C00" stroke-width="6" fill="none"/>
  
  <!-- Duck legs -->
  <line x1="58" y1="90" x2="58" y2="100" stroke="#FFA500" stroke-width="3"/>
  <line x1="72" y1="90" x2="72" y2="100" stroke="#FFA500" stroke-width="3"/>
  
  <!-- Duck webbed feet -->
  <path d="M53 100 Q55 105 57 100 Q60 105 63 100" fill="#FFA500"/>
  <path d="M67 100 Q69 105 71 100 Q74 105 77 100" fill="#FFA500"/>
  
  <!-- Water ripples -->
  <ellipse cx="65" cy="105" rx="15" ry="3" fill="#87CEEB" opacity="0.5"/>
  <ellipse cx="65" cy="107" rx="20" ry="2" fill="#87CEEB" opacity="0.3"/>
</svg>