<svg width="120" height="120" viewBox="0 0 120 120" fill="none" xmlns="http://www.w3.org/2000/svg">
  <!-- Fish body -->
  <ellipse cx="60" cy="60" rx="25" ry="15" fill="#FF6347"/>
  
  <!-- Fish head -->
  <circle cx="40" cy="60" r="12" fill="#FF6347"/>
  
  <!-- Fish eye -->
  <circle cx="37" cy="57" r="4" fill="#FFFFFF"/>
  <circle cx="36" cy="56" r="2" fill="#000000"/>
  <circle cx="37" cy="55" r="1" fill="#FFFFFF"/>
  
  <!-- Fish mouth -->
  <path d="M25 60 Q22 58 25 56" stroke="#8B0000" stroke-width="2" fill="none"/>
  
  <!-- Fish fins -->
  <path d="M60 45 Q70 40 65 50 Q70 55 60 50 Z" fill="#FF4500"/>
  <path d="M60 75 Q70 80 65 70 Q70 65 60 70 Z" fill="#FF4500"/>
  <path d="M45 75 Q40 85 50 80 Q55 85 45 80 Z" fill="#FF4500"/>
  
  <!-- Fish tail -->
  <path d="M85 60 Q95 45 100 55 Q95 60 100 65 Q95 75 85 60 Z" fill="#FF4500"/>
  
  <!-- Fish scales -->
  <circle cx="50" cy="55" r="2" fill="#FF4500" opacity="0.7"/>
  <circle cx="55" cy="60" r="2" fill="#FF4500" opacity="0.7"/>
  <circle cx="50" cy="65" r="2" fill="#FF4500" opacity="0.7"/>
  <circle cx="60" cy="55" r="2" fill="#FF4500" opacity="0.7"/>
  <circle cx="65" cy="60" r="2" fill="#FF4500" opacity="0.7"/>
  <circle cx="60" cy="65" r="2" fill="#FF4500" opacity="0.7"/>
  <circle cx="70" cy="60" r="2" fill="#FF4500" opacity="0.7"/>
  
  <!-- Water bubbles -->
  <circle cx="20" cy="40" r="2" fill="#87CEEB" opacity="0.6"/>
  <circle cx="25" cy="35" r="1.5" fill="#87CEEB" opacity="0.6"/>
  <circle cx="30" cy="30" r="1" fill="#87CEEB" opacity="0.6"/>
  <circle cx="15" cy="80" r="2.5" fill="#87CEEB" opacity="0.6"/>
  <circle cx="20" cy="85" r="1.5" fill="#87CEEB" opacity="0.6"/>
</svg>