<svg width="120" height="120" viewBox="0 0 120 120" fill="none" xmlns="http://www.w3.org/2000/svg">
  <!-- Goat body -->
  <ellipse cx="60" cy="75" rx="25" ry="18" fill="#F5F5DC"/>
  
  <!-- Goat head -->
  <ellipse cx="60" cy="50" rx="18" ry="15" fill="#F5F5DC"/>
  
  <!-- Goat snout -->
  <ellipse cx="60" cy="58" rx="6" ry="4" fill="#DEB887"/>
  
  <!-- Goat beard -->
  <ellipse cx="60" cy="68" rx="3" ry="8" fill="#FFFFFF"/>
  
  <!-- Goat ears -->
  <ellipse cx="50" cy="42" rx="4" ry="8" fill="#F5F5DC" transform="rotate(-30 50 42)"/>
  <ellipse cx="70" cy="42" rx="4" ry="8" fill="#F5F5DC" transform="rotate(30 70 42)"/>
  
  <!-- Goat eyes -->
  <ellipse cx="54" cy="45" rx="2" ry="3" fill="#000000"/>
  <ellipse cx="66" cy="45" rx="2" ry="3" fill="#000000"/>
  <ellipse cx="54" cy="44" rx="1" ry="1" fill="#FFFFFF"/>
  <ellipse cx="66" cy="44" rx="1" ry="1" fill="#FFFFFF"/>
  
  <!-- Goat horns -->
  <path d="M52 35 L50 25" stroke="#8B4513" stroke-width="3"/>
  <path d="M68 35 L70 25" stroke="#8B4513" stroke-width="3"/>
  
  <!-- Goat legs -->
  <rect x="48" y="90" width="3" height="15" fill="#F5F5DC"/>
  <rect x="56" y="92" width="3" height="15" fill="#F5F5DC"/>
  <rect x="61" y="92" width="3" height="15" fill="#F5F5DC"/>
  <rect x="69" y="90" width="3" height="15" fill="#F5F5DC"/>
  
  <!-- Goat hooves -->
  <ellipse cx="49.5" cy="107" rx="2" ry="1.5" fill="#000000"/>
  <ellipse cx="57.5" cy="107" rx="2" ry="1.5" fill="#000000"/>
  <ellipse cx="62.5" cy="107" rx="2" ry="1.5" fill="#000000"/>
  <ellipse cx="70.5" cy="107" rx="2" ry="1.5" fill="#000000"/>
  
  <!-- Goat tail -->
  <path d="M85 72 Q90 78 85 85" stroke="#F5F5DC" stroke-width="3" fill="none"/>
</svg>