<svg width="120" height="120" viewBox="0 0 120 120" fill="none" xmlns="http://www.w3.org/2000/svg">
  <!-- Pig body -->
  <ellipse cx="60" cy="75" rx="28" ry="20" fill="#FFB6C1"/>
  
  <!-- Pig head -->
  <ellipse cx="60" cy="50" rx="22" ry="18" fill="#FFB6C1"/>
  
  <!-- Pig snout -->
  <ellipse cx="60" cy="58" rx="8" ry="6" fill="#FF91A4"/>
  
  <!-- Pig nostrils -->
  <ellipse cx="57" cy="58" rx="1" ry="2" fill="#000000"/>
  <ellipse cx="63" cy="58" rx="1" ry="2" fill="#000000"/>
  
  <!-- Pig ears -->
  <ellipse cx="50" cy="40" rx="5" ry="8" fill="#FFB6C1" transform="rotate(-30 50 40)"/>
  <ellipse cx="70" cy="40" rx="5" ry="8" fill="#FFB6C1" transform="rotate(30 70 40)"/>
  
  <!-- Pig eyes -->
  <circle cx="52" cy="45" r="3" fill="#000000"/>
  <circle cx="68" cy="45" r="3" fill="#000000"/>
  <circle cx="53" cy="44" r="1" fill="#FFFFFF"/>
  <circle cx="69" cy="44" r="1" fill="#FFFFFF"/>
  
  <!-- Pig tail -->
  <path d="M88 70 Q95 65 92 58 Q89 62 92 66" stroke="#FFB6C1" stroke-width="4" fill="none"/>
  
  <!-- Pig legs -->
  <ellipse cx="45" cy="92" rx="4" ry="8" fill="#FFB6C1"/>
  <ellipse cx="55" cy="94" rx="4" ry="8" fill="#FFB6C1"/>
  <ellipse cx="65" cy="94" rx="4" ry="8" fill="#FFB6C1"/>
  <ellipse cx="75" cy="92" rx="4" ry="8" fill="#FFB6C1"/>
  
  <!-- Pig hooves -->
  <ellipse cx="45" cy="98" rx="3" ry="2" fill="#8B4513"/>
  <ellipse cx="55" cy="100" rx="3" ry="2" fill="#8B4513"/>
  <ellipse cx="65" cy="100" rx="3" ry="2" fill="#8B4513"/>
  <ellipse cx="75" cy="98" rx="3" ry="2" fill="#8B4513"/>
</svg>