<svg width="120" height="120" viewBox="0 0 120 120" fill="none" xmlns="http://www.w3.org/2000/svg">
  <!-- Rabbit body -->
  <ellipse cx="60" cy="75" rx="22" ry="18" fill="#F5F5DC"/>
  
  <!-- Rabbit head -->
  <circle cx="60" cy="55" r="18" fill="#F5F5DC"/>
  
  <!-- Rabbit ears -->
  <ellipse cx="52" cy="30" rx="4" ry="15" fill="#F5F5DC"/>
  <ellipse cx="68" cy="30" rx="4" ry="15" fill="#F5F5DC"/>
  <ellipse cx="52" cy="32" rx="2" ry="10" fill="#FFB6C1"/>
  <ellipse cx="68" cy="32" rx="2" ry="10" fill="#FFB6C1"/>
  
  <!-- Rabbit eyes -->
  <circle cx="54" cy="50" r="3" fill="#000000"/>
  <circle cx="66" cy="50" r="3" fill="#000000"/>
  <circle cx="55" cy="49" r="1" fill="#FFFFFF"/>
  <circle cx="67" cy="49" r="1" fill="#FFFFFF"/>
  
  <!-- Rabbit nose -->
  <ellipse cx="60" cy="58" rx="1.5" ry="1" fill="#FFB6C1"/>
  
  <!-- Rabbit mouth -->
  <path d="M60 59 L58 62 L60 63 L62 62 Z" fill="#FFB6C1"/>
  <path d="M58 62 Q55 65 52 63" stroke="#8B4513" stroke-width="1" fill="none"/>
  <path d="M62 62 Q65 65 68 63" stroke="#8B4513" stroke-width="1" fill="none"/>
  
  <!-- Rabbit whiskers -->
  <line x1="40" y1="55" x2="50" y2="57" stroke="#8B4513" stroke-width="1"/>
  <line x1="42" y1="60" x2="52" y2="60" stroke="#8B4513" stroke-width="1"/>
  <line x1="68" y1="60" x2="78" y2="60" stroke="#8B4513" stroke-width="1"/>
  <line x1="70" y1="57" x2="80" y2="55" stroke="#8B4513" stroke-width="1"/>
  
  <!-- Rabbit front paws -->
  <circle cx="50" cy="85" r="4" fill="#F5F5DC"/>
  <circle cx="70" cy="85" r="4" fill="#F5F5DC"/>
  
  <!-- Rabbit back paws -->
  <ellipse cx="48" cy="95" rx="6" ry="8" fill="#F5F5DC"/>
  <ellipse cx="72" cy="95" rx="6" ry="8" fill="#F5F5DC"/>
  
  <!-- Rabbit tail -->
  <circle cx="82" cy="70" r="4" fill="#FFFFFF"/>
  
  <!-- Rabbit belly -->
  <ellipse cx="60" cy="78" rx="12" ry="8" fill="#FFFFFF"/>
  
  <!-- Rabbit cheeks -->
  <circle cx="45" cy="58" r="3" fill="#F0F0F0"/>
  <circle cx="75" cy="58" r="3" fill="#F0F0F0"/>
</svg>
