<svg viewBox="0 0 100 100" xmlns="http://www.w3.org/2000/svg">
  <!-- Bicycle wheels -->
  <circle cx="25" cy="65" r="15" fill="none" stroke="#2F4F4F" stroke-width="3"/>
  <circle cx="75" cy="65" r="15" fill="none" stroke="#2F4F4F" stroke-width="3"/>
  <!-- Wheel spokes -->
  <line x1="25" y1="50" x2="25" y2="80" stroke="#C0C0C0" stroke-width="1"/>
  <line x1="10" y1="65" x2="40" y2="65" stroke="#C0C0C0" stroke-width="1"/>
  <line x1="18" y1="54" x2="32" y2="76" stroke="#C0C0C0" stroke-width="1"/>
  <line x1="32" y1="54" x2="18" y2="76" stroke="#C0C0C0" stroke-width="1"/>
  <line x1="75" y1="50" x2="75" y2="80" stroke="#C0C0C0" stroke-width="1"/>
  <line x1="60" y1="65" x2="90" y2="65" stroke="#C0C0C0" stroke-width="1"/>
  <line x1="68" y1="54" x2="82" y2="76" stroke="#C0C0C0" stroke-width="1"/>
  <line x1="82" y1="54" x2="68" y2="76" stroke="#C0C0C0" stroke-width="1"/>
  <!-- Bicycle frame -->
  <line x1="25" y1="65" x2="50" y2="35" stroke="#FF0000" stroke-width="3"/>
  <line x1="50" y1="35" x2="75" y2="65" stroke="#FF0000" stroke-width="3"/>
  <line x1="50" y1="35" x2="40" y2="55" stroke="#FF0000" stroke-width="3"/>
  <line x1="40" y1="55" x2="60" y2="55" stroke="#FF0000" stroke-width="3"/>
  <line x1="60" y1="55" x2="75" y2="65" stroke="#FF0000" stroke-width="3"/>
  <line x1="25" y1="65" x2="40" y2="55" stroke="#FF0000" stroke-width="3"/>
  <!-- Handlebars -->
  <line x1="45" y1="30" x2="55" y2="30" stroke="#000" stroke-width="3"/>
  <line x1="50" y1="30" x2="50" y2="35" stroke="#000" stroke-width="2"/>
  <!-- Seat -->
  <ellipse cx="42" cy="52" rx="6" ry="3" fill="#8B4513"/>
  <line x1="42" y1="52" x2="42" y2="60" stroke="#C0C0C0" stroke-width="2"/>
  <!-- Pedals -->
  <circle cx="50" cy="55" r="3" fill="#2F4F4F"/>
  <rect x="47" y="58" width="6" height="2" rx="1" fill="#000"/>
  <rect x="47" y="52" width="6" height="2" rx="1" fill="#000"/>
  <!-- Chain -->
  <path d="M 50 58 Q 60 60 75 65" stroke="#C0C0C0" stroke-width="1" fill="none"/>
</svg>