<svg viewBox="0 0 100 100" xmlns="http://www.w3.org/2000/svg">
  <!-- Fire truck body -->
  <rect x="10" y="45" width="80" height="30" rx="5" fill="#FF0000" stroke="#8B0000" stroke-width="2"/>
  <!-- Fire truck cab -->
  <rect x="70" y="30" width="25" height="20" rx="3" fill="#FF4500" stroke="#8B0000" stroke-width="2"/>
  <!-- Windows -->
  <rect x="73" y="33" width="8" height="8" rx="2" fill="#87CEEB"/>
  <rect x="84" y="33" width="8" height="8" rx="2" fill="#87CEEB"/>
  <!-- Ladder -->
  <rect x="15" y="35" width="50" height="4" rx="2" fill="#C0C0C0" stroke="#808080" stroke-width="1"/>
  <line x1="20" y1="35" x2="20" y2="39" stroke="#808080" stroke-width="1"/>
  <line x1="30" y1="35" x2="30" y2="39" stroke="#808080" stroke-width="1"/>
  <line x1="40" y1="35" x2="40" y2="39" stroke="#808080" stroke-width="1"/>
  <line x1="50" y1="35" x2="50" y2="39" stroke="#808080" stroke-width="1"/>
  <line x1="60" y1="35" x2="60" y2="39" stroke="#808080" stroke-width="1"/>
  <!-- Equipment compartments -->
  <rect x="15" y="50" width="12" height="15" rx="2" fill="#8B0000" stroke="#000" stroke-width="1"/>
  <rect x="30" y="50" width="12" height="15" rx="2" fill="#8B0000" stroke="#000" stroke-width="1"/>
  <rect x="45" y="50" width="12" height="15" rx="2" fill="#8B0000" stroke="#000" stroke-width="1"/>
  <!-- Wheels -->
  <circle cx="25" cy="75" r="8" fill="#2F4F4F" stroke="#000" stroke-width="2"/>
  <circle cx="45" cy="75" r="8" fill="#2F4F4F" stroke="#000" stroke-width="2"/>
  <circle cx="75" cy="75" r="8" fill="#2F4F4F" stroke="#000" stroke-width="2"/>
  <!-- Headlights -->
  <circle cx="95" cy="55" r="3" fill="#FFFF00"/>
  <!-- Emergency lights -->
  <rect x="40" y="25" width="6" height="4" rx="2" fill="#FF0000"/>
  <rect x="50" y="25" width="6" height="4" rx="2" fill="#0000FF"/>
</svg>