<svg viewBox="0 0 100 100" xmlns="http://www.w3.org/2000/svg">
  <!-- Train engine -->
  <rect x="60" y="40" width="35" height="30" rx="5" fill="#4169E1" stroke="#000080" stroke-width="2"/>
  <!-- Train car -->
  <rect x="15" y="45" width="50" height="25" rx="5" fill="#FF6347" stroke="#8B0000" stroke-width="2"/>
  <!-- Engine front -->
  <polygon points="95,45 95,65 85,60 85,50" fill="#000080"/>
  <!-- Smokestack -->
  <rect x="75" y="25" width="8" height="20" rx="2" fill="#2F4F4F" stroke="#000" stroke-width="2"/>
  <!-- Smoke -->
  <circle cx="79" cy="20" r="3" fill="#C0C0C0" opacity="0.7"/>
  <circle cx="82" cy="15" r="2" fill="#C0C0C0" opacity="0.5"/>
  <circle cx="76" cy="12" r="2" fill="#C0C0C0" opacity="0.4"/>
  <!-- Train windows -->
  <rect x="20" y="50" width="8" height="8" rx="2" fill="#87CEEB"/>
  <rect x="32" y="50" width="8" height="8" rx="2" fill="#87CEEB"/>
  <rect x="44" y="50" width="8" height="8" rx="2" fill="#87CEEB"/>
  <rect x="70" y="45" width="8" height="8" rx="2" fill="#87CEEB"/>
  <rect x="82" y="45" width="8" height="8" rx="2" fill="#87CEEB"/>
  <!-- Wheels -->
  <circle cx="25" cy="75" r="6" fill="#2F4F4F" stroke="#000" stroke-width="2"/>
  <circle cx="40" cy="75" r="6" fill="#2F4F4F" stroke="#000" stroke-width="2"/>
  <circle cx="55" cy="75" r="6" fill="#2F4F4F" stroke="#000" stroke-width="2"/>
  <circle cx="70" cy="75" r="6" fill="#2F4F4F" stroke="#000" stroke-width="2"/>
  <circle cx="85" cy="75" r="6" fill="#2F4F4F" stroke="#000" stroke-width="2"/>
  <!-- Coupling -->
  <rect x="58" y="55" width="8" height="4" rx="2" fill="#8B4513"/>
  <!-- Headlight -->
  <circle cx="92" cy="55" r="3" fill="#FFFF00"/>
</svg>