<svg viewBox="0 0 100 100" xmlns="http://www.w3.org/2000/svg">
  <!-- Pizza slice shape -->
  <path d="M 50 15 L 85 80 Q 80 85 70 85 L 30 85 Q 20 85 15 80 Z" fill="#FFD700" stroke="#DAA520" stroke-width="2"/>
  <!-- Pizza crust -->
  <path d="M 15 80 Q 20 85 30 85 L 70 85 Q 80 85 85 80 Q 82 82 75 82 L 25 82 Q 18 82 15 80" fill="#D2691E"/>
  <!-- Cheese -->
  <ellipse cx="45" cy="60" rx="15" ry="8" fill="#FFFF99" opacity="0.8"/>
  <!-- Pepperoni -->
  <circle cx="40" cy="45" r="4" fill="#8B0000"/>
  <circle cx="55" cy="50" r="4" fill="#8B0000"/>
  <circle cx="35" cy="65" r="4" fill="#8B0000"/>
  <circle cx="60" cy="65" r="4" fill="#8B0000"/>
  <circle cx="48" cy="70" r="4" fill="#8B0000"/>
  <!-- Green peppers -->
  <ellipse cx="42" cy="35" rx="3" ry="2" fill="#228B22"/>
  <ellipse cx="58" cy="40" rx="3" ry="2" fill="#228B22"/>
  <ellipse cx="52" cy="75" rx="3" ry="2" fill="#228B22"/>
  <!-- Sauce spots -->
  <circle cx="50" cy="25" r="2" fill="#FF6347"/>
  <circle cx="65" cy="55" r="2" fill="#FF6347"/>
  <circle cx="25" cy="70" r="2" fill="#FF6347"/>
</svg>