<svg viewBox="0 0 100 100" xmlns="http://www.w3.org/2000/svg">
  <defs>
    <radialGradient id="doughGrad" cx="0.3" cy="0.3">
      <stop offset="0%" stop-color="#FFFF99"/>
      <stop offset="50%" stop-color="#FFD700"/>
      <stop offset="100%" stop-color="#DAA520"/>
    </radialGradient>
    <radialGradient id="crustGrad" cx="0.3" cy="0.3">
      <stop offset="0%" stop-color="#F4A460"/>
      <stop offset="50%" stop-color="#D2691E"/>
      <stop offset="100%" stop-color="#8B4513"/>
    </radialGradient>
    <radialGradient id="pepperoniGrad" cx="0.3" cy="0.3">
      <stop offset="0%" stop-color="#DC143C"/>
      <stop offset="70%" stop-color="#8B0000"/>
      <stop offset="100%" stop-color="#654321"/>
    </radialGradient>
  </defs>
  
  <!-- Pizza slice base -->
  <path d="M 50 15 L 87 82 Q 82 87 72 87 L 28 87 Q 18 87 13 82 Z" fill="url(#doughGrad)" stroke="#B8860B" stroke-width="2"/>
  
  <!-- Pizza sauce base -->
  <path d="M 50 20 L 82 78 Q 78 82 70 82 L 30 82 Q 22 82 18 78 Z" fill="#FF6347" opacity="0.8"/>
  
  <!-- Cheese layer with realistic melted appearance -->
  <path d="M 50 25 L 77 75 Q 74 78 68 78 L 32 78 Q 26 78 23 75 Z" fill="#FFFF99" opacity="0.9"/>
  <ellipse cx="45" cy="55" rx="12" ry="6" fill="#FFFACD" opacity="0.8"/>
  <ellipse cx="55" cy="60" rx="10" ry="5" fill="#FFFACD" opacity="0.8"/>
  <ellipse cx="35" cy="65" rx="8" ry="4" fill="#FFFACD" opacity="0.8"/>
  
  <!-- Cheese bubbles and texture -->
  <circle cx="42" cy="50" r="2" fill="#F0E68C" opacity="0.7"/>
  <circle cx="58" cy="55" r="1.5" fill="#F0E68C" opacity="0.7"/>
  <circle cx="38" cy="70" r="1.8" fill="#F0E68C" opacity="0.7"/>
  <circle cx="62" cy="68" r="1.3" fill="#F0E68C" opacity="0.7"/>
  
  <!-- Detailed pepperoni with texture -->
  <circle cx="40" cy="42" r="4.5" fill="url(#pepperoniGrad)" stroke="#654321" stroke-width="0.5"/>
  <circle cx="57" cy="48" r="4.5" fill="url(#pepperoniGrad)" stroke="#654321" stroke-width="0.5"/>
  <circle cx="33" cy="62" r="4.5" fill="url(#pepperoniGrad)" stroke="#654321" stroke-width="0.5"/>
  <circle cx="62" cy="62" r="4.5" fill="url(#pepperoniGrad)" stroke="#654321" stroke-width="0.5"/>
  <circle cx="47" cy="68" r="4.5" fill="url(#pepperoniGrad)" stroke="#654321" stroke-width="0.5"/>
  
  <!-- Pepperoni fat spots -->
  <circle cx="39" cy="41" r="0.8" fill="#FF4500" opacity="0.8"/>
  <circle cx="41" cy="43" r="0.6" fill="#FF4500" opacity="0.8"/>
  <circle cx="56" cy="47" r="0.7" fill="#FF4500" opacity="0.8"/>
  <circle cx="58" cy="49" r="0.5" fill="#FF4500" opacity="0.8"/>
  <circle cx="32" cy="61" r="0.8" fill="#FF4500" opacity="0.8"/>
  <circle cx="34" cy="63" r="0.6" fill="#FF4500" opacity="0.8"/>
  <circle cx="61" cy="61" r="0.7" fill="#FF4500" opacity="0.8"/>
  <circle cx="63" cy="63" r="0.5" fill="#FF4500" opacity="0.8"/>
  <circle cx="46" cy="67" r="0.8" fill="#FF4500" opacity="0.8"/>
  <circle cx="48" cy="69" r="0.6" fill="#FF4500" opacity="0.8"/>
  
  <!-- Green peppers with realistic shapes -->
  <path d="M 42 35 Q 45 33 47 35 Q 45 37 42 37 Z" fill="#32CD32"/>
  <path d="M 58 38 Q 61 36 63 38 Q 61 40 58 40 Z" fill="#32CD32"/>
  <path d="M 50 72 Q 53 70 55 72 Q 53 74 50 74 Z" fill="#32CD32"/>
  <path d="M 28 58 Q 31 56 33 58 Q 31 60 28 60 Z" fill="#32CD32"/>
  
  <!-- Mushroom slices -->
  <ellipse cx="45" cy="38" rx="3" ry="2" fill="#F5F5DC"/>
  <ellipse cx="54" cy="65" rx="3" ry="2" fill="#F5F5DC"/>
  <path d="M 43 37 Q 45 36 47 37" stroke="#D2B48C" stroke-width="0.5" fill="none"/>
  <path d="M 52 64 Q 54 63 56 64" stroke="#D2B48C" stroke-width="0.5" fill="none"/>
  
  <!-- Pizza crust with texture -->
  <path d="M 13 82 Q 18 87 28 87 L 72 87 Q 82 87 87 82 Q 84 85 78 85 L 22 85 Q 16 85 13 82" fill="url(#crustGrad)" stroke="#654321" stroke-width="1"/>
  
  <!-- Crust bubbles and texture -->
  <ellipse cx="20" cy="84" rx="2" ry="1" fill="#F4A460" opacity="0.8"/>
  <ellipse cx="35" cy="85" rx="1.5" ry="0.8" fill="#F4A460" opacity="0.8"/>
  <ellipse cx="50" cy="85" rx="2" ry="1" fill="#F4A460" opacity="0.8"/>
  <ellipse cx="65" cy="85" rx="1.8" ry="0.9" fill="#F4A460" opacity="0.8"/>
  <ellipse cx="80" cy="84" rx="2" ry="1" fill="#F4A460" opacity="0.8"/>
  
  <!-- Crust seeds -->
  <circle cx="25" cy="83" r="0.5" fill="#8B4513"/>
  <circle cx="45" cy="84" r="0.4" fill="#8B4513"/>
  <circle cx="70" cy="83" r="0.5" fill="#8B4513"/>
  
  <!-- Oil spots for realism -->
  <circle cx="52" cy="45" r="1" fill="#FF8C00" opacity="0.4"/>
  <circle cx="36" cy="55" r="0.8" fill="#FF8C00" opacity="0.4"/>
  <circle cx="65" cy="58" r="1.2" fill="#FF8C00" opacity="0.4"/>
  
  <!-- Oregano sprinkles -->
  <ellipse cx="41" cy="52" rx="0.5" ry="0.3" fill="#228B22" opacity="0.6" transform="rotate(45 41 52)"/>
  <ellipse cx="59" cy="51" rx="0.4" ry="0.2" fill="#228B22" opacity="0.6" transform="rotate(-30 59 51)"/>
  <ellipse cx="48" cy="61" rx="0.5" ry="0.3" fill="#228B22" opacity="0.6" transform="rotate(20 48 61)"/>
  <ellipse cx="38" cy="68" rx="0.4" ry="0.2" fill="#228B22" opacity="0.6" transform="rotate(-45 38 68)"/>
</svg>